<svg xmlns="http://www.w3.org/2000/svg" viewBox="0 0 200 200" data-doodle="coffee-mug"><g class="dd-wash" fill-opacity="0.55"><path fill="#b9765a" d="M65.2 95.5C67 95.4 72.3 95 75.8 94.7C79.3 94.4 82.7 94 86.3 93.8C89.9 93.5 93.5 93.3 97.4 93.2C101.2 93.1 105.3 93.2 109.6 93.3C113.8 93.5 118.3 93.8 122.7 94C127.2 94.3 133.9 92.7 136.3 95C138.8 97.3 137.2 103.6 137.4 107.7C137.5 111.8 137.5 115.8 137.1 119.8C136.8 123.7 136.2 127.4 135.4 131.2C134.6 134.9 133.5 138.5 132.4 142.1C131.2 145.8 129.9 149.4 128.4 153C126.9 156.6 125.4 160.5 123.3 163.8C121.2 167.1 118.7 170.5 115.9 172.9C113 175.3 109.5 176.9 106.2 178C102.8 179 99.2 179.4 95.7 179.1C92.2 178.7 88.3 177.9 85.1 175.9C81.8 174 78.7 170.8 76.1 167.4C73.6 164.1 71.6 159.8 69.8 155.8C68 151.8 66.6 147.4 65.4 143.2C64.2 139 63.4 134.8 62.8 130.7C62.2 126.6 62 122.7 62 118.8C62 114.9 62.4 111.2 62.7 107.5C63.1 103.7 63.9 98.5 64.2 96.4C64.4 94.3 64.3 95.2 64.3 95Z"/><path fill="#e2cfbd" d="M42.7 187.2C44.7 186.6 50.7 184.6 54.5 183.7C58.4 182.9 62.3 182.6 66 182C69.6 181.4 72.9 180.7 76.3 180.1C79.7 179.6 83 179 86.6 178.7C90.2 178.3 94 178.1 98.1 178.2C102.1 178.2 106.5 178.5 111 178.9C115.5 179.3 120.3 180 124.8 180.5C129.3 181.1 133.9 181.7 138.2 182.3C142.4 182.8 146.9 182.9 150.1 183.9C153.3 184.9 158.4 187.1 157.5 188.1C156.5 189.2 148.5 189.7 144.1 190.2C139.7 190.6 135.2 190.6 131.1 190.9C127 191.2 123.2 191.5 119.5 191.9C115.9 192.3 112.6 192.9 109.1 193.3C105.7 193.7 102.4 194.2 98.8 194.4C95.2 194.6 91.5 194.7 87.5 194.6C83.5 194.5 79.1 194.1 74.6 193.5C70.2 193 65.4 192.3 60.9 191.5C56.4 190.7 51.2 189.9 47.6 188.9C44 187.8 40.7 185.9 39.3 185.2Z"/></g><g class="dd-ink" fill="none" stroke="currentColor" stroke-width="2.2" stroke-linecap="round" stroke-linejoin="round"><path pathLength="1" style="--i:0" d="M60 92.5C61.1 92.5 64.3 92.6 66.4 92.6C68.5 92.7 70.7 92.7 72.8 92.7C74.9 92.7 77.1 92.7 79.2 92.6C81.3 92.5 83.5 92.2 85.6 92.1C87.7 91.9 89.9 91.6 92 91.5C94.1 91.3 96.3 91.2 98.4 91.1C100.5 91.1 102.7 91.1 104.8 91.2C106.9 91.2 109.1 91.4 111.2 91.4C113.3 91.5 115.5 91.6 117.6 91.6C119.7 91.6 121.9 91.6 124 91.5C126.1 91.5 129 90.6 130.4 91.4C131.8 92.3 132.2 94.8 132.4 96.8C132.7 98.8 132.1 101.1 131.9 103.2C131.7 105.3 131.4 107.5 131.1 109.6C130.9 111.7 130.7 113.8 130.6 115.9C130.4 118.1 130.3 120.2 130.3 122.3C130.2 124.4 130.2 126.6 130.1 128.7C130 130.8 129.9 133 129.6 135.1C129.4 137.2 129.1 139.3 128.7 141.4C128.4 143.5 127.9 145.6 127.4 147.6C126.9 149.7 126.3 151.7 125.7 153.8C125.1 155.8 124.4 157.9 123.6 159.8C122.8 161.8 121.9 163.8 120.7 165.6C119.5 167.5 118.1 169.3 116.5 170.7C114.8 172.1 112.8 173.3 110.8 174.2C108.8 175 106.6 175.5 104.4 175.8C102.3 176.2 100.1 176.2 98 176.2C95.8 176.2 93.7 176.1 91.6 175.9C89.4 175.6 87.3 175.3 85.2 174.7C83.2 174.1 81.2 173.3 79.4 172.2C77.6 171.1 75.9 169.6 74.5 168C73.1 166.5 72 164.6 71 162.8C70 161 69.2 159 68.4 157.1C67.7 155.2 67 153.2 66.3 151.2C65.6 149.2 64.9 147.2 64.3 145.2C63.7 143.1 63.2 141.1 62.7 139C62.3 136.9 61.9 134.8 61.6 132.7C61.3 130.5 61.2 128.4 61 126.3C60.8 124.2 60.7 122 60.6 119.9C60.4 117.8 60.3 115.6 60.1 113.5C59.9 111.4 59.6 109.3 59.5 107.1C59.3 105 59.1 102.9 59 100.7C58.9 98.6 58.3 95.9 59 94.3C59.7 92.7 61.7 91.8 63.2 91.3C64.7 90.9 67.2 91.7 68 91.8"/><path pathLength="1" style="--i:1" d="M128.8 105.6C130.1 105.5 134.4 104.9 136.7 105C139.1 105.1 141.1 105.5 143.1 106.2C145 107 146.9 108.2 148.3 109.6C149.8 111 151 112.8 151.8 114.6C152.6 116.5 153.1 118.5 153.2 120.5C153.3 122.5 153.1 124.7 152.6 126.7C152.1 128.6 151.3 130.6 150.2 132.4C149.2 134.2 147.8 135.8 146.3 137.2C144.7 138.7 143 139.9 141.2 140.9C139.4 142 137.4 142.8 135.4 143.5C133.5 144.3 130.9 144.8 129.4 145.3C127.8 145.7 126.5 146 125.9 146.1"/><path pathLength="1" style="--i:2" d="M129.3 115.9C130.6 115.9 134.6 115 136.9 115.4C139.2 115.8 141.7 116.7 143.1 118.3C144.5 119.9 145.5 122.8 145.4 125C145.3 127.1 143.8 129.5 142.4 131C141 132.6 138.8 133.6 136.8 134.4C134.9 135.1 132.3 135.3 130.6 135.6C128.9 135.9 127.5 136.1 126.9 136.2"/><path pathLength="1" style="--i:3" d="M38 184C38.9 183.5 41.4 181.7 43.4 180.9C45.3 180.2 47.5 179.8 49.6 179.3C51.7 178.8 53.8 178.4 55.9 178C58 177.7 60.1 177.4 62.3 177.2C64.4 177 66.6 177 68.7 176.9C70.8 176.9 73 176.9 75.1 176.9C77.3 176.9 79.4 177 81.5 176.9C83.7 176.9 85.8 176.8 87.9 176.7C90.1 176.7 92.2 176.5 94.3 176.5C96.5 176.5 98.6 176.5 100.7 176.6C102.9 176.7 105 176.8 107.1 177C109.3 177.2 111.4 177.5 113.5 177.8C115.6 178 117.8 178.2 119.9 178.4C122 178.6 124.1 178.7 126.3 178.8C128.4 179 130.5 179 132.6 179.2C134.8 179.3 136.9 179.5 139 179.7C141.1 180 143.2 180.4 145.3 180.9C147.3 181.4 150.2 182 151.2 182.7C152.2 183.4 152.3 184.4 151.4 185.1C150.4 185.8 147.5 186.4 145.5 186.9C143.5 187.5 141.4 188 139.3 188.4C137.2 188.9 135.1 189.3 133 189.6C130.9 189.9 128.7 190.1 126.6 190.3C124.5 190.5 122.3 190.5 120.2 190.6C118.1 190.7 115.9 190.7 113.8 190.8C111.7 190.9 109.5 191.1 107.4 191.2C105.3 191.4 103.1 191.6 101 191.7C98.9 191.8 96.7 192 94.6 192.1C92.5 192.1 90.3 192.1 88.2 192C86 191.9 83.9 191.7 81.8 191.5C79.6 191.3 77.5 191.1 75.4 190.9C73.3 190.7 71.1 190.5 69 190.4C66.9 190.2 64.7 190.1 62.6 190C60.5 189.8 58.3 189.7 56.2 189.4C54.1 189.2 52 188.9 49.9 188.4C47.8 188 45.6 187.5 43.7 186.8C41.9 186 38.8 185 38.8 184.2C38.8 183.4 42.6 182.4 43.6 182C44.7 181.5 44.9 181.6 45.2 181.6"/><path pathLength="1" style="--i:4" d="M80.8 79.9C80.4 78.8 78.4 75.7 78 73.6C77.7 71.5 78.2 69.4 78.7 67.3C79.2 65.3 80.4 63.5 81.2 61.5C82.1 59.5 83.2 57.6 83.9 55.6C84.5 53.5 85.1 51.2 85.2 49C85.2 46.9 84.5 44.1 84.1 42.4C83.6 40.7 82.7 39.4 82.4 38.8"/><path pathLength="1" style="--i:5" d="M98.6 82.9C98.1 81.7 96.3 77.9 95.8 75.6C95.4 73.3 95.4 71.2 95.6 69.1C95.8 67 96.4 64.8 97 62.8C97.5 60.7 98.2 58.7 98.8 56.6C99.4 54.6 99.9 52.5 100.4 50.5C100.8 48.4 101.1 46.4 101.2 44.3C101.4 42.3 101.4 40.1 101.2 38.1C101 36 100.3 33.3 100.1 32C99.8 30.7 99.7 30.5 99.6 30.2"/><path pathLength="1" style="--i:6" d="M116.7 80.1C116.2 79 114 75.9 113.6 73.7C113.1 71.6 113.4 69.2 113.9 67.1C114.3 65 115.5 63.1 116.3 61.1C117.2 59.1 118.4 57.4 119.1 55.3C119.8 53.3 120.5 51.2 120.6 49C120.6 46.9 119.7 44.1 119.3 42.6C118.8 41 118.1 40 117.8 39.5"/></g></svg>
