<svg xmlns="http://www.w3.org/2000/svg" viewBox="0 0 200 200" data-doodle="olive-sprig"><g class="dd-wash" fill-opacity="0.45"></g><g class="dd-ink" fill="none" stroke="currentColor" stroke-width="1.15" stroke-linecap="round" stroke-linejoin="round"><path pathLength="1" style="--i:0" d="M9.9 194.9C10 194 10.1 191.2 10.2 189.2C10.4 187.2 10.6 184.9 10.9 182.8C11.1 180.7 11.4 178.6 11.8 176.5C12.2 174.4 12.7 172.3 13.2 170.2C13.8 168.2 14.4 166.1 15.1 164.1C15.7 162 16.4 160 17.2 158C17.9 156 18.7 154 19.5 152C20.3 150.1 21.1 148.1 22 146.2C22.9 144.2 23.8 142.3 24.7 140.4C25.7 138.5 26.7 136.6 27.8 134.8C28.9 132.9 30 131.1 31.2 129.3C32.3 127.5 33.5 125.8 34.7 124C35.9 122.3 37.2 120.5 38.4 118.8C39.7 117.1 40.9 115.4 42.2 113.7C43.5 112 44.8 110.3 46.2 108.6C47.5 107 48.9 105.4 50.3 103.8C51.7 102.2 53.2 100.6 54.7 99.1C56.2 97.6 57.7 96.1 59.2 94.6C60.7 93.1 62.3 91.6 63.9 90.2C65.4 88.7 67 87.3 68.6 85.9C70.2 84.4 71.8 83 73.4 81.6C75 80.3 76.7 78.9 78.4 77.6C80.1 76.3 81.8 75 83.5 73.8C85.3 72.6 87.1 71.4 88.8 70.2C90.6 69 92.4 67.9 94.2 66.8C96 65.6 97.9 64.5 99.7 63.4C101.5 62.3 103.4 61.2 105.2 60.1C107.1 59.1 108.9 58 110.8 57C112.7 56 114.6 55.1 116.5 54.2C118.4 53.2 120.4 52.4 122.3 51.5C124.3 50.6 126.3 49.8 128.2 49C130.2 48.1 132.1 47.3 134.1 46.5C136.1 45.7 138 44.8 140 44.1C142 43.3 144 42.5 146 41.7C148 41 150 40.2 152 39.5C154 38.9 156 38.2 158.1 37.6C160.1 36.9 162.2 36.4 164.2 35.8C166.3 35.2 168.3 34.6 170.4 34C172.4 33.4 174.5 32.8 176.5 32.3C178.6 31.7 181.1 31.1 182.7 30.6C184.4 30.2 185.8 29.9 186.4 29.7"/><path pathLength="1" style="--i:1" d="M15.6 163C15.9 163 16.7 162.7 17.2 162.6C17.7 162.4 18.2 162.2 18.7 162C19.2 161.9 19.7 161.7 20.2 161.5C20.7 161.3 21.2 161.1 21.7 160.8C22.1 160.6 22.6 160.4 23.1 160.1C23.6 159.9 24.1 159.7 24.5 159.4C25 159.1 25.5 158.9 25.9 158.6C26.4 158.3 26.8 158 27.3 157.7C27.7 157.4 28.2 157.1 28.6 156.8C29.1 156.5 29.5 156.2 29.9 155.9C30.3 155.5 30.8 155.2 31.2 154.9C31.6 154.5 32 154.2 32.4 153.8C32.8 153.4 33.2 153.1 33.6 152.7C34 152.3 34.3 152 34.7 151.6C35.1 151.2 35.5 150.8 35.8 150.4C36.2 150 36.5 149.6 36.9 149.2C37.3 148.8 37.6 148.4 37.9 148C38.3 147.6 38.6 147.2 38.9 146.7C39.3 146.3 39.6 145.9 39.9 145.5C40.2 145 40.5 144.6 40.8 144.2C41.2 143.7 41.5 143.3 41.8 142.8C42.1 142.4 42.5 141.9 42.6 141.5C42.8 141.1 43.1 140.6 42.8 140.6C42.6 140.5 41.8 141 41.3 141.2C40.8 141.4 40.3 141.6 39.8 141.8C39.4 142 38.9 142.3 38.4 142.5C37.9 142.7 37.4 143 37 143.2C36.5 143.4 36 143.7 35.5 143.9C35.1 144.2 34.6 144.4 34.1 144.7C33.7 145 33.2 145.2 32.7 145.5C32.3 145.8 31.8 146 31.4 146.3C30.9 146.6 30.5 146.9 30 147.2C29.6 147.5 29.2 147.8 28.7 148.1C28.3 148.5 27.9 148.8 27.5 149.1C27 149.4 26.6 149.8 26.2 150.1C25.8 150.5 25.4 150.8 25 151.2C24.6 151.5 24.2 151.9 23.8 152.3C23.5 152.6 23.1 153 22.7 153.4C22.3 153.8 22 154.2 21.6 154.6C21.3 155 20.9 155.4 20.6 155.8C20.3 156.2 19.9 156.6 19.6 157.1C19.3 157.5 19 157.9 18.7 158.3C18.4 158.8 18.1 159.2 17.8 159.7C17.5 160.1 17.2 160.6 16.9 161C16.7 161.5 16.4 162.1 16.1 162.4C15.9 162.7 15.5 162.8 15.6 162.7C15.8 162.7 16.6 162.4 17 162.2C17.5 162 18.3 161.7 18.5 161.6"/><path pathLength="1" style="--i:2" d="M15.1 163.3C15.2 163.2 15.3 163.1 15.6 162.9C15.8 162.7 16.4 162.2 16.8 161.9C17.2 161.6 17.6 161.2 18.1 160.9C18.5 160.6 18.9 160.2 19.3 159.9C19.7 159.6 20.1 159.2 20.6 158.9C21 158.6 21.4 158.2 21.8 157.9C22.2 157.6 22.6 157.2 23 156.9C23.5 156.6 23.9 156.2 24.3 155.9C24.7 155.6 25.1 155.2 25.5 154.9C25.9 154.5 26.4 154.2 26.8 153.9C27.2 153.5 27.6 153.2 28 152.8C28.4 152.5 28.8 152.2 29.2 151.8C29.6 151.5 30 151.1 30.5 150.8C30.9 150.4 31.3 150.1 31.7 149.8C32.1 149.4 32.5 149.1 32.9 148.7C33.3 148.4 33.7 148 34.1 147.7C34.5 147.3 35 146.9 35.3 146.6C35.6 146.4 35.8 146.2 35.9 146.1"/><path pathLength="1" style="--i:3" d="M15.8 163C15.8 162.7 15.9 161.9 15.9 161.4C15.9 160.8 15.9 160.3 15.9 159.8C16 159.2 16 158.7 16 158.1C15.9 157.6 15.9 157.1 15.9 156.5C15.9 156 15.8 155.5 15.8 154.9C15.7 154.4 15.7 153.9 15.6 153.3C15.5 152.8 15.5 152.3 15.4 151.7C15.3 151.2 15.2 150.7 15.1 150.2C15 149.6 14.9 149.1 14.7 148.6C14.6 148.1 14.5 147.6 14.3 147C14.2 146.5 14 146 13.9 145.5C13.7 145 13.5 144.5 13.3 144C13.1 143.5 13 143 12.8 142.5C12.6 142 12.3 141.5 12.1 141C11.9 140.5 11.7 140 11.5 139.5C11.2 139.1 11 138.6 10.7 138.1C10.5 137.6 10.3 137.2 10 136.7C9.7 136.2 9.5 135.8 9.2 135.3C8.9 134.8 8.7 134.4 8.4 133.9C8.1 133.5 7.8 133 7.5 132.6C7.2 132.1 6.9 131.7 6.6 131.2C6.3 130.8 6 130.2 5.7 129.9C5.5 129.6 5.3 129.2 5.2 129.4C5.1 129.6 5.2 130.4 5.2 131C5.2 131.5 5.3 132 5.3 132.5C5.3 133.1 5.3 133.6 5.4 134.1C5.4 134.7 5.4 135.2 5.5 135.7C5.5 136.3 5.6 136.8 5.6 137.3C5.7 137.9 5.8 138.4 5.8 138.9C5.9 139.4 6 140 6.1 140.5C6.1 141 6.2 141.5 6.3 142.1C6.4 142.6 6.5 143.1 6.6 143.6C6.8 144.1 6.9 144.7 7 145.2C7.1 145.7 7.3 146.2 7.4 146.7C7.6 147.2 7.7 147.7 7.9 148.2C8 148.7 8.2 149.3 8.4 149.8C8.5 150.3 8.7 150.8 8.9 151.3C9.1 151.7 9.3 152.2 9.5 152.7C9.7 153.2 10 153.7 10.2 154.2C10.4 154.7 10.7 155.1 10.9 155.6C11.2 156.1 11.4 156.5 11.7 157C11.9 157.5 12.2 157.9 12.5 158.4C12.8 158.8 13.1 159.3 13.4 159.7C13.7 160.1 14 160.6 14.3 161C14.6 161.4 15.1 162 15.3 162.3C15.5 162.6 15.4 163 15.4 162.9C15.5 162.7 15.5 161.9 15.5 161.3C15.5 160.8 15.5 160 15.5 159.7"/><path pathLength="1" style="--i:4" d="M15.9 163.2C15.8 163.2 15.9 163.2 15.8 162.9C15.7 162.6 15.5 161.9 15.3 161.4C15.2 160.8 15 160.3 14.9 159.8C14.7 159.3 14.6 158.8 14.4 158.3C14.3 157.8 14.1 157.3 14 156.8C13.8 156.2 13.7 155.7 13.5 155.2C13.4 154.7 13.2 154.2 13.1 153.7C12.9 153.2 12.7 152.7 12.6 152.2C12.4 151.7 12.3 151.1 12.1 150.6C11.9 150.1 11.8 149.6 11.6 149.1C11.5 148.6 11.3 148.1 11.1 147.6C11 147.1 10.8 146.6 10.6 146.1C10.5 145.6 10.3 145 10.2 144.5C10 144 9.8 143.5 9.7 143C9.5 142.5 9.3 142 9.2 141.5C9 141 8.8 140.5 8.7 140C8.5 139.5 8.3 138.8 8.2 138.4C8.1 138.1 8 137.9 8 137.8"/><path pathLength="1" style="--i:5" d="M26.6 137.1C26.9 137.1 27.7 137 28.2 136.9C28.7 136.8 29.3 136.8 29.8 136.7C30.3 136.6 30.9 136.5 31.4 136.4C31.9 136.3 32.4 136.1 32.9 136C33.5 135.9 34 135.7 34.5 135.6C35 135.4 35.5 135.3 36 135.1C36.5 134.9 37 134.7 37.5 134.6C38 134.4 38.5 134.2 39 133.9C39.5 133.7 40 133.5 40.5 133.3C41 133 41.5 132.8 41.9 132.6C42.4 132.3 42.9 132 43.4 131.8C43.8 131.5 44.3 131.2 44.7 130.9C45.2 130.7 45.6 130.4 46.1 130.1C46.5 129.8 47 129.5 47.4 129.1C47.8 128.8 48.2 128.5 48.7 128.2C49.1 127.8 49.5 127.5 49.9 127.2C50.3 126.8 50.7 126.5 51.1 126.1C51.5 125.8 51.9 125.4 52.3 125C52.7 124.7 53.1 124.3 53.5 123.9C53.9 123.6 54.2 123.2 54.6 122.8C55 122.4 55.6 121.9 55.7 121.7C55.8 121.5 55.5 121.5 55.1 121.6C54.8 121.6 54.1 121.8 53.6 121.9C53.1 122 52.5 122.1 52 122.3C51.5 122.4 51 122.5 50.5 122.7C50 122.8 49.5 122.9 48.9 123.1C48.4 123.2 47.9 123.4 47.4 123.6C46.9 123.7 46.4 123.9 45.9 124.1C45.4 124.3 44.9 124.4 44.4 124.6C43.9 124.8 43.4 125 42.9 125.2C42.4 125.4 42 125.6 41.5 125.9C41 126.1 40.5 126.3 40 126.5C39.6 126.8 39.1 127 38.6 127.3C38.2 127.5 37.7 127.8 37.2 128.1C36.8 128.3 36.3 128.6 35.9 128.9C35.4 129.2 35 129.5 34.5 129.8C34.1 130.1 33.7 130.4 33.3 130.7C32.8 131.1 32.4 131.4 32 131.7C31.6 132.1 31.2 132.4 30.8 132.8C30.4 133.1 30 133.5 29.7 133.9C29.3 134.3 28.9 134.6 28.5 135C28.2 135.4 27.8 135.9 27.5 136.2C27.2 136.5 26.6 136.7 26.7 136.7C26.8 136.8 27.6 136.6 28.1 136.5C28.6 136.4 29.5 136.2 29.7 136.2"/><path pathLength="1" style="--i:6" d="M26.3 137.1C26.3 137.1 26.3 137.1 26.6 136.9C26.9 136.8 27.5 136.4 28 136.2C28.5 135.9 28.9 135.7 29.4 135.4C29.9 135.2 30.4 134.9 30.8 134.7C31.3 134.4 31.8 134.2 32.2 133.9C32.7 133.6 33.2 133.4 33.6 133.1C34.1 132.9 34.6 132.6 35 132.4C35.5 132.1 36 131.8 36.4 131.6C36.9 131.3 37.4 131.1 37.8 130.8C38.3 130.5 38.8 130.3 39.2 130C39.7 129.8 40.2 129.5 40.6 129.3C41.1 129 41.6 128.7 42 128.5C42.5 128.2 43 128 43.4 127.7C43.9 127.4 44.4 127.2 44.8 126.9C45.3 126.7 45.8 126.4 46.2 126.2C46.7 125.9 47.3 125.6 47.6 125.4C48 125.2 48.1 125.2 48.2 125.1"/><path pathLength="1" style="--i:7" d="M26.8 137C26.9 136.7 27.1 136 27.3 135.4C27.4 134.9 27.5 134.4 27.6 133.9C27.7 133.3 27.8 132.8 27.9 132.3C28 131.8 28.1 131.2 28.2 130.7C28.3 130.2 28.3 129.6 28.4 129.1C28.4 128.6 28.4 128 28.5 127.5C28.5 126.9 28.5 126.4 28.5 125.9C28.5 125.3 28.5 124.8 28.5 124.3C28.5 123.7 28.5 123.2 28.4 122.7C28.4 122.1 28.3 121.6 28.3 121C28.2 120.5 28.2 120 28.1 119.5C28 118.9 27.9 118.4 27.8 117.9C27.7 117.3 27.6 116.8 27.5 116.3C27.4 115.8 27.3 115.2 27.2 114.7C27 114.2 26.9 113.7 26.7 113.2C26.6 112.7 26.4 112.1 26.3 111.6C26.1 111.1 25.9 110.6 25.8 110.1C25.6 109.6 25.4 109.1 25.2 108.6C25 108.1 24.8 107.6 24.6 107.1C24.4 106.6 24.2 106.1 24 105.6C23.8 105.1 23.6 104.3 23.4 104.2C23.2 104 23.1 104.3 23 104.7C22.9 105 22.8 105.7 22.7 106.3C22.6 106.8 22.5 107.3 22.5 107.8C22.4 108.4 22.3 108.9 22.2 109.4C22.2 109.9 22.1 110.5 22.1 111C22 111.5 22 112.1 21.9 112.6C21.9 113.1 21.9 113.7 21.8 114.2C21.8 114.7 21.8 115.3 21.8 115.8C21.8 116.3 21.8 116.9 21.8 117.4C21.8 117.9 21.8 118.5 21.8 119C21.9 119.5 21.9 120 21.9 120.6C22 121.1 22 121.6 22.1 122.2C22.2 122.7 22.2 123.2 22.3 123.8C22.4 124.3 22.5 124.8 22.6 125.3C22.7 125.9 22.8 126.4 22.9 126.9C23 127.4 23.2 127.9 23.3 128.4C23.4 129 23.6 129.5 23.7 130C23.9 130.5 24.1 131 24.3 131.5C24.4 132 24.6 132.5 24.8 133C25 133.5 25.3 134 25.5 134.4C25.7 134.9 26 135.5 26.2 135.9C26.4 136.3 26.4 136.9 26.5 136.8C26.6 136.7 26.8 135.8 26.9 135.3C27 134.8 27.1 134 27.2 133.8"/><path pathLength="1" style="--i:8" d="M26.4 137.3C26.4 137.2 26.4 137.3 26.4 136.9C26.3 136.6 26.3 135.9 26.2 135.3C26.2 134.8 26.2 134.3 26.1 133.8C26.1 133.2 26 132.7 26 132.2C26 131.6 25.9 131.1 25.9 130.6C25.8 130 25.8 129.5 25.8 129C25.7 128.4 25.7 127.9 25.6 127.4C25.6 126.8 25.6 126.3 25.5 125.8C25.5 125.2 25.4 124.7 25.4 124.2C25.3 123.6 25.3 123.1 25.3 122.6C25.2 122 25.2 121.5 25.1 121C25.1 120.5 25 119.9 25 119.4C24.9 118.9 24.9 118.3 24.8 117.8C24.8 117.3 24.7 116.7 24.7 116.2C24.6 115.7 24.6 115.1 24.5 114.6C24.5 114.1 24.4 113.4 24.3 113C24.3 112.6 24.3 112.5 24.3 112.4"/><path pathLength="1" style="--i:9" d="M42.9 112.1C43.1 112.1 43.9 112.2 44.5 112.2C45 112.2 45.5 112.2 46.1 112.2C46.6 112.2 47.1 112.2 47.6 112.1C48.2 112.1 48.7 112.1 49.2 112C49.7 112 50.3 111.9 50.8 111.9C51.3 111.8 51.9 111.7 52.4 111.7C52.9 111.6 53.4 111.5 53.9 111.4C54.5 111.3 55 111.2 55.5 111.1C56 110.9 56.5 110.8 57 110.7C57.6 110.5 58.1 110.4 58.6 110.2C59.1 110.1 59.6 109.9 60.1 109.7C60.6 109.5 61.1 109.4 61.6 109.2C62.1 109 62.6 108.8 63.1 108.5C63.5 108.3 64 108.1 64.5 107.9C65 107.7 65.5 107.4 65.9 107.2C66.4 106.9 66.9 106.7 67.3 106.4C67.8 106.1 68.3 105.9 68.7 105.6C69.2 105.3 69.6 105 70.1 104.8C70.5 104.5 71 104.2 71.4 103.9C71.8 103.6 72.7 103.1 72.6 102.9C72.6 102.7 71.5 102.9 71 102.9C70.5 102.9 69.9 102.9 69.4 102.9C68.9 103 68.3 103 67.8 103C67.3 103.1 66.7 103.1 66.2 103.2C65.7 103.2 65.1 103.3 64.6 103.4C64.1 103.4 63.6 103.5 63 103.6C62.5 103.7 62 103.8 61.5 103.9C60.9 104 60.4 104.1 59.9 104.2C59.4 104.3 58.8 104.4 58.3 104.5C57.8 104.7 57.3 104.8 56.8 105C56.3 105.1 55.8 105.3 55.2 105.4C54.7 105.6 54.2 105.8 53.7 106C53.2 106.1 52.7 106.3 52.2 106.5C51.7 106.7 51.2 106.9 50.8 107.2C50.3 107.4 49.8 107.6 49.3 107.9C48.8 108.1 48.4 108.4 47.9 108.6C47.4 108.9 47 109.2 46.5 109.4C46 109.7 45.6 110 45.1 110.3C44.7 110.6 44.3 110.9 43.8 111.2C43.4 111.6 42.4 112.3 42.5 112.6C42.7 112.8 43.9 112.8 44.4 112.9C45 112.9 45.8 112.9 46.1 112.9"/><path pathLength="1" style="--i:10" d="M42.2 112.7C42.3 112.7 42.5 112.6 42.9 112.5C43.3 112.4 43.9 112.2 44.4 112C44.9 111.9 45.4 111.7 45.9 111.5C46.4 111.3 46.9 111.2 47.4 111C47.9 110.8 48.5 110.7 49 110.5C49.5 110.3 50 110.1 50.5 110C51 109.8 51.5 109.6 52 109.5C52.5 109.3 53 109.1 53.5 108.9C54 108.8 54.5 108.6 55 108.4C55.5 108.2 56 108.1 56.5 107.9C57 107.7 57.5 107.6 58 107.4C58.5 107.2 59.1 107 59.6 106.9C60.1 106.7 60.6 106.5 61.1 106.4C61.6 106.2 62.1 106 62.6 105.8C63.1 105.7 63.8 105.5 64.1 105.3C64.5 105.2 64.5 105.2 64.6 105.2"/><path pathLength="1" style="--i:11" d="M42.6 112.3C42.7 112.1 43 111.3 43.2 110.8C43.4 110.4 43.6 109.9 43.8 109.4C44 108.9 44.2 108.4 44.4 107.9C44.6 107.4 44.7 106.9 44.9 106.4C45 105.9 45.2 105.4 45.3 104.9C45.5 104.3 45.6 103.8 45.7 103.3C45.8 102.8 45.9 102.3 46 101.8C46.1 101.2 46.2 100.7 46.3 100.2C46.4 99.7 46.5 99.1 46.5 98.6C46.6 98.1 46.6 97.6 46.7 97C46.7 96.5 46.8 96 46.8 95.4C46.8 94.9 46.8 94.4 46.8 93.8C46.8 93.3 46.8 92.8 46.8 92.3C46.8 91.7 46.8 91.2 46.7 90.7C46.7 90.1 46.7 89.6 46.6 89.1C46.6 88.5 46.5 88 46.4 87.5C46.4 86.9 46.3 86.4 46.2 85.9C46.1 85.4 46 84.8 45.9 84.3C45.8 83.8 45.7 83.3 45.6 82.7C45.4 82.2 45.4 81.3 45.2 81.3C45 81.3 44.8 82.3 44.6 82.8C44.4 83.3 44.2 83.8 44.1 84.3C43.9 84.8 43.7 85.3 43.6 85.8C43.4 86.3 43.2 86.8 43.1 87.3C42.9 87.8 42.8 88.4 42.6 88.9C42.5 89.4 42.4 89.9 42.3 90.4C42.1 90.9 42 91.5 41.9 92C41.8 92.5 41.7 93 41.6 93.6C41.5 94.1 41.4 94.6 41.3 95.1C41.3 95.7 41.2 96.2 41.1 96.7C41.1 97.3 41 97.8 41 98.3C40.9 98.9 40.9 99.4 40.9 99.9C40.9 100.5 40.9 101 40.9 101.5C40.9 102.1 40.9 102.6 40.9 103.1C40.9 103.7 40.9 104.2 41 104.7C41 105.3 41.1 105.8 41.2 106.3C41.2 106.9 41.3 107.4 41.4 107.9C41.5 108.5 41.6 109 41.7 109.5C41.8 110 41.9 110.5 42.1 111.1C42.3 111.6 42.6 112.8 42.9 112.8C43.2 112.8 43.6 111.6 43.8 111.1C44.1 110.6 44.3 109.9 44.4 109.6"/><path pathLength="1" style="--i:12" d="M43.1 113.4C43.1 113.3 43.2 112.9 43.2 112.5C43.2 112 43.3 111.4 43.3 110.9C43.3 110.3 43.4 109.8 43.4 109.3C43.4 108.7 43.5 108.2 43.5 107.7C43.5 107.1 43.6 106.6 43.6 106.1C43.6 105.5 43.6 105 43.7 104.5C43.7 103.9 43.7 103.4 43.8 102.9C43.8 102.3 43.8 101.8 43.8 101.3C43.9 100.7 43.9 100.2 43.9 99.7C44 99.1 44 98.6 44 98.1C44 97.5 44.1 97 44.1 96.5C44.1 95.9 44.2 95.4 44.2 94.9C44.2 94.3 44.3 93.8 44.3 93.3C44.3 92.8 44.4 92.2 44.4 91.7C44.4 91.2 44.5 90.5 44.5 90.1C44.5 89.7 44.6 89.5 44.6 89.4"/><path pathLength="1" style="--i:13" d="M65.1 89.2C65.3 89.3 66.1 89.5 66.6 89.5C67.2 89.6 67.7 89.7 68.2 89.8C68.8 89.9 69.3 89.9 69.8 90C70.4 90 70.9 90.1 71.4 90.1C72 90.1 72.5 90.2 73 90.2C73.6 90.2 74.1 90.2 74.7 90.1C75.2 90.1 75.7 90.1 76.3 90C76.8 90 77.3 90 77.9 89.9C78.4 89.8 78.9 89.8 79.4 89.7C80 89.6 80.5 89.5 81 89.4C81.6 89.3 82.1 89.2 82.6 89.1C83.1 89 83.6 88.8 84.2 88.7C84.7 88.6 85.2 88.4 85.7 88.3C86.2 88.1 86.7 88 87.2 87.8C87.7 87.6 88.2 87.5 88.7 87.3C89.3 87.1 89.8 86.9 90.2 86.7C90.7 86.5 91.2 86.3 91.7 86.1C92.2 85.9 92.9 85.7 93.2 85.4C93.5 85.1 93.6 84.8 93.4 84.6C93.1 84.4 92.3 84.4 91.7 84.3C91.2 84.2 90.7 84.2 90.1 84.1C89.6 84 89.1 84 88.6 83.9C88 83.9 87.5 83.9 86.9 83.8C86.4 83.8 85.9 83.8 85.3 83.8C84.8 83.8 84.3 83.8 83.7 83.8C83.2 83.8 82.7 83.9 82.1 83.9C81.6 83.9 81.1 84 80.5 84C80 84.1 79.5 84.2 78.9 84.3C78.4 84.3 77.9 84.4 77.4 84.5C76.8 84.6 76.3 84.7 75.8 84.9C75.3 85 74.8 85.1 74.3 85.3C73.7 85.4 73.2 85.6 72.7 85.7C72.2 85.9 71.7 86.1 71.2 86.3C70.7 86.5 70.2 86.7 69.7 86.9C69.3 87.1 68.8 87.3 68.3 87.5C67.8 87.8 67.3 88 66.9 88.2C66.4 88.5 65.6 88.7 65.6 88.8C65.6 89 66.3 89 66.8 89C67.2 89.1 68.1 89.3 68.3 89.3"/><path pathLength="1" style="--i:14" d="M64.8 88.9C64.8 88.9 64.8 88.9 65.1 88.9C65.4 88.8 66.2 88.7 66.7 88.6C67.2 88.5 67.8 88.4 68.3 88.3C68.8 88.3 69.3 88.2 69.9 88.1C70.4 88 70.9 87.9 71.4 87.8C72 87.7 72.5 87.6 73 87.6C73.5 87.5 74.1 87.4 74.6 87.3C75.1 87.2 75.7 87.1 76.2 87.1C76.7 87 77.2 86.9 77.8 86.8C78.3 86.7 78.8 86.6 79.3 86.6C79.9 86.5 80.4 86.4 80.9 86.3C81.5 86.3 82 86.2 82.5 86.1C83 86 83.6 86 84.1 85.9C84.6 85.8 85.3 85.7 85.7 85.7C86 85.6 86.1 85.6 86.2 85.6"/><path pathLength="1" style="--i:15" d="M65.2 89C65.3 88.8 65.8 88.1 66.1 87.7C66.4 87.2 66.7 86.8 67 86.3C67.3 85.9 67.5 85.4 67.8 84.9C68.1 84.5 68.3 84 68.5 83.5C68.8 83 69 82.5 69.2 82.1C69.5 81.6 69.7 81.1 69.9 80.6C70.1 80.1 70.2 79.6 70.4 79.1C70.6 78.6 70.8 78 70.9 77.5C71.1 77 71.2 76.5 71.3 76C71.5 75.5 71.6 74.9 71.7 74.4C71.8 73.9 71.9 73.4 72 72.8C72.1 72.3 72.2 71.8 72.2 71.2C72.3 70.7 72.4 70.2 72.4 69.6C72.5 69.1 72.5 68.6 72.5 68C72.5 67.5 72.6 67 72.6 66.4C72.6 65.9 72.6 65.3 72.6 64.8C72.6 64.3 72.5 63.7 72.5 63.2C72.5 62.7 72.6 61.9 72.4 61.6C72.3 61.2 71.9 60.9 71.7 61.1C71.4 61.3 71.1 62.1 70.8 62.5C70.6 63 70.3 63.5 70.1 64C69.8 64.4 69.6 64.9 69.4 65.4C69.1 65.9 68.9 66.4 68.7 66.9C68.5 67.3 68.3 67.8 68.1 68.3C67.9 68.8 67.7 69.3 67.6 69.8C67.4 70.3 67.2 70.8 67 71.4C66.9 71.9 66.7 72.4 66.6 72.9C66.5 73.4 66.3 73.9 66.2 74.4C66.1 74.9 66 75.5 65.9 76C65.8 76.5 65.7 77 65.6 77.6C65.5 78.1 65.4 78.6 65.4 79.1C65.3 79.7 65.3 80.2 65.2 80.7C65.2 81.2 65.1 81.8 65.1 82.3C65.1 82.8 65.1 83.4 65.1 83.9C65.1 84.4 65.1 84.9 65.1 85.5C65.2 86 65.2 86.6 65.2 87C65.3 87.5 65.1 88.3 65.2 88.4C65.3 88.5 65.6 87.8 65.8 87.4C66 87.1 66.5 86.3 66.7 86.1"/><path pathLength="1" style="--i:16" d="M64.8 89.6C64.9 89.5 64.9 89.3 65 88.9C65.1 88.5 65.3 87.9 65.4 87.3C65.5 86.8 65.7 86.3 65.8 85.8C65.9 85.3 66 84.8 66.2 84.2C66.3 83.7 66.4 83.2 66.5 82.7C66.7 82.2 66.8 81.6 66.9 81.1C67 80.6 67.2 80.1 67.3 79.6C67.4 79.1 67.6 78.5 67.7 78C67.8 77.5 67.9 77 68.1 76.5C68.2 76 68.3 75.4 68.5 74.9C68.6 74.4 68.7 73.9 68.9 73.4C69 72.9 69.2 72.3 69.3 71.8C69.4 71.3 69.6 70.8 69.7 70.3C69.8 69.8 70 69.1 70.1 68.7C70.2 68.3 70.3 68 70.4 67.8"/><path pathLength="1" style="--i:17" d="M90.9 69.1C91.2 69.2 91.9 69.5 92.4 69.7C92.9 69.9 93.5 70 94 70.2C94.5 70.4 95 70.5 95.5 70.6C96 70.8 96.6 70.9 97.1 71C97.6 71.1 98.1 71.2 98.7 71.3C99.2 71.3 99.7 71.4 100.3 71.5C100.8 71.5 101.3 71.6 101.9 71.6C102.4 71.6 102.9 71.7 103.5 71.7C104 71.7 104.5 71.7 105.1 71.7C105.6 71.7 106.1 71.6 106.7 71.6C107.2 71.6 107.7 71.5 108.3 71.5C108.8 71.4 109.3 71.4 109.9 71.3C110.4 71.2 110.9 71.2 111.5 71.1C112 71 112.5 70.9 113 70.8C113.6 70.7 114.1 70.5 114.6 70.4C115.1 70.3 115.6 70.2 116.2 70C116.7 69.9 117.8 69.7 117.9 69.4C118 69.2 117.2 68.7 116.8 68.5C116.4 68.3 115.8 68.2 115.3 68.1C114.7 67.9 114.2 67.8 113.7 67.7C113.2 67.5 112.6 67.4 112.1 67.3C111.6 67.2 111.1 67.1 110.5 67C110 66.9 109.5 66.9 108.9 66.8C108.4 66.7 107.9 66.7 107.3 66.6C106.8 66.6 106.3 66.6 105.7 66.6C105.2 66.5 104.7 66.5 104.1 66.5C103.6 66.5 103.1 66.6 102.5 66.6C102 66.6 101.5 66.6 100.9 66.7C100.4 66.8 99.9 66.8 99.3 66.9C98.8 67 98.3 67.1 97.8 67.2C97.2 67.3 96.7 67.4 96.2 67.5C95.7 67.6 95.2 67.8 94.7 67.9C94.1 68.1 93.6 68.2 93.1 68.4C92.6 68.6 92 68.9 91.6 69C91.3 69 90.9 68.8 91.1 68.9C91.2 69 92 69.3 92.5 69.4C93 69.6 93.8 69.8 94.1 69.9"/><path pathLength="1" style="--i:18" d="M90.2 69C90.3 69 90.6 69 91 69C91.4 69 92 69 92.6 69C93.1 69 93.6 69 94.2 69C94.7 69 95.2 69.1 95.8 69.1C96.3 69.1 96.8 69.1 97.4 69.1C97.9 69.1 98.4 69.1 99 69.1C99.5 69.1 100 69.1 100.6 69.1C101.1 69.1 101.6 69.1 102.2 69.1C102.7 69.1 103.2 69.1 103.8 69.1C104.3 69.1 104.8 69.1 105.4 69.1C105.9 69.1 106.4 69.1 107 69.1C107.5 69.1 108 69.1 108.6 69.1C109.1 69.1 109.8 69.1 110.2 69.1C110.6 69.1 110.9 69.2 111 69.2"/><path pathLength="1" style="--i:19" d="M91.2 69.2C91.4 69 91.9 68.4 92.3 68C92.6 67.6 93 67.2 93.3 66.8C93.7 66.4 94 66 94.3 65.6C94.6 65.1 95 64.7 95.2 64.2C95.5 63.8 95.8 63.3 96.1 62.9C96.4 62.4 96.6 61.9 96.9 61.4C97.1 61 97.4 60.5 97.6 60C97.8 59.5 98 59 98.2 58.5C98.4 58 98.6 57.5 98.8 57C98.9 56.5 99.1 56 99.3 55.5C99.4 54.9 99.6 54.4 99.7 53.9C99.8 53.4 99.9 52.9 100 52.3C100.2 51.8 100.3 51.3 100.3 50.8C100.4 50.2 100.5 49.7 100.6 49.2C100.7 48.7 100.7 48.1 100.8 47.6C100.8 47.1 100.9 46.5 100.9 46C101 45.5 101.1 44.6 101.1 44.5C101 44.4 100.8 44.9 100.5 45.2C100.2 45.5 99.9 46 99.5 46.5C99.2 46.9 98.9 47.3 98.6 47.7C98.3 48.2 98 48.6 97.7 49.1C97.4 49.5 97.1 49.9 96.8 50.4C96.5 50.8 96.3 51.3 96 51.8C95.7 52.2 95.5 52.7 95.2 53.2C95 53.6 94.7 54.1 94.5 54.6C94.3 55.1 94.1 55.5 93.9 56C93.6 56.5 93.4 57 93.3 57.5C93.1 58 92.9 58.5 92.7 59C92.6 59.5 92.4 60 92.3 60.5C92.1 61 92 61.6 91.9 62.1C91.8 62.6 91.7 63.1 91.6 63.6C91.5 64.2 91.5 64.7 91.4 65.2C91.3 65.8 91.3 66.3 91.3 66.8C91.2 67.3 91.3 68.1 91.2 68.4C91.1 68.7 90.8 69 90.9 68.9C91 68.7 91.6 68.1 91.9 67.7C92.2 67.3 92.7 66.7 92.9 66.5"/><path pathLength="1" style="--i:20" d="M91 69.6C91.1 69.5 91.1 69.5 91.2 69.1C91.3 68.8 91.6 68.1 91.8 67.6C92 67.2 92.2 66.7 92.4 66.2C92.6 65.7 92.8 65.2 93 64.7C93.2 64.2 93.4 63.7 93.6 63.2C93.8 62.7 94 62.2 94.1 61.7C94.3 61.2 94.5 60.7 94.7 60.2C94.9 59.7 95.1 59.2 95.3 58.7C95.5 58.2 95.7 57.7 95.9 57.2C96.1 56.7 96.2 56.2 96.4 55.7C96.6 55.2 96.8 54.7 97 54.2C97.2 53.7 97.4 53.2 97.6 52.7C97.8 52.2 98 51.6 98.2 51.2C98.3 50.9 98.3 50.9 98.3 50.8"/><path pathLength="1" style="--i:21" d="M122.4 51.3C122.7 51.5 123.4 51.8 123.9 52.1C124.4 52.3 124.8 52.5 125.3 52.7C125.8 52.9 126.3 53.1 126.8 53.3C127.3 53.5 127.8 53.6 128.3 53.8C128.8 54 129.3 54.1 129.9 54.2C130.4 54.4 130.9 54.5 131.4 54.6C131.9 54.7 132.4 54.8 133 54.9C133.5 55 134 55 134.5 55.1C135 55.2 135.6 55.2 136.1 55.3C136.6 55.3 137.2 55.3 137.7 55.3C138.2 55.4 138.7 55.4 139.3 55.4C139.8 55.4 140.3 55.4 140.9 55.4C141.4 55.3 141.9 55.3 142.4 55.3C143 55.3 143.5 55.2 144 55.2C144.6 55.1 145.2 55 145.6 55C146 55 146.6 55.1 146.5 55C146.4 54.9 145.6 54.6 145.2 54.4C144.7 54.1 144.2 53.9 143.7 53.7C143.2 53.5 142.7 53.3 142.2 53.1C141.7 52.9 141.2 52.7 140.7 52.5C140.2 52.3 139.7 52.2 139.2 52C138.7 51.9 138.2 51.7 137.7 51.6C137.2 51.5 136.7 51.4 136.1 51.2C135.6 51.1 135.1 51 134.6 51C134 50.9 133.5 50.8 133 50.8C132.4 50.7 131.9 50.7 131.4 50.6C130.8 50.6 130.3 50.6 129.8 50.6C129.3 50.6 128.7 50.6 128.2 50.6C127.7 50.6 127.1 50.7 126.6 50.7C126.1 50.8 125.5 50.8 125 50.9C124.5 51 123.9 51.1 123.4 51.2C123 51.3 122.4 51.2 122.5 51.3C122.5 51.5 123.4 51.9 123.9 52.1C124.3 52.3 125 52.7 125.3 52.8"/><path pathLength="1" style="--i:22" d="M122.1 51.2C122.2 51.2 122.1 51.2 122.5 51.2C122.8 51.3 123.5 51.4 124 51.5C124.6 51.6 125.1 51.7 125.6 51.8C126.1 51.9 126.7 52 127.2 52.1C127.7 52.2 128.2 52.3 128.8 52.3C129.3 52.4 129.8 52.5 130.3 52.6C130.9 52.7 131.4 52.8 131.9 52.9C132.4 53 133 53.1 133.5 53.1C134 53.2 134.5 53.3 135.1 53.4C135.6 53.5 136.1 53.6 136.7 53.6C137.2 53.7 137.7 53.8 138.2 53.9C138.8 54 139.4 54.1 139.8 54.1C140.2 54.2 140.4 54.2 140.5 54.2"/><path pathLength="1" style="--i:23" d="M122.4 51.3C122.6 51.2 123.2 50.7 123.6 50.3C124 49.9 124.4 49.6 124.8 49.2C125.2 48.8 125.5 48.4 125.9 48.1C126.3 47.7 126.6 47.3 126.9 46.9C127.3 46.4 127.6 46 127.9 45.6C128.2 45.2 128.5 44.7 128.8 44.3C129.1 43.9 129.4 43.4 129.7 43C130 42.5 130.2 42 130.5 41.6C130.7 41.1 131 40.6 131.2 40.2C131.4 39.7 131.6 39.2 131.9 38.7C132.1 38.2 132.3 37.7 132.5 37.3C132.7 36.8 132.8 36.3 133 35.8C133.2 35.3 133.4 34.8 133.5 34.3C133.7 33.8 133.8 33.2 134 32.7C134.1 32.2 134.3 31.6 134.4 31.2C134.5 30.9 134.9 30.5 134.8 30.5C134.7 30.6 134.2 31.2 133.8 31.5C133.4 31.8 133 32.2 132.6 32.6C132.3 33 131.9 33.3 131.5 33.7C131.2 34.1 130.8 34.5 130.4 34.9C130.1 35.3 129.7 35.7 129.4 36.1C129.1 36.5 128.7 36.9 128.4 37.3C128.1 37.8 127.8 38.2 127.5 38.6C127.2 39.1 126.9 39.5 126.6 40C126.3 40.4 126 40.9 125.8 41.3C125.5 41.8 125.2 42.3 125 42.7C124.8 43.2 124.5 43.7 124.3 44.2C124.1 44.7 123.9 45.2 123.7 45.7C123.5 46.2 123.3 46.7 123.2 47.2C123 47.7 122.9 48.2 122.8 48.8C122.6 49.3 122.4 49.8 122.4 50.3C122.3 50.8 122.2 51.6 122.4 51.6C122.7 51.6 123.4 50.9 123.8 50.5C124.3 50.2 124.8 49.6 125 49.5"/><path pathLength="1" style="--i:24" d="M122 52.1C122.1 52 122.3 51.8 122.5 51.4C122.7 51.1 123.1 50.5 123.3 50C123.6 49.6 123.9 49.1 124.2 48.7C124.4 48.2 124.7 47.8 125 47.3C125.3 46.8 125.6 46.4 125.8 45.9C126.1 45.5 126.4 45 126.6 44.6C126.9 44.1 127.2 43.6 127.5 43.2C127.7 42.7 128 42.3 128.3 41.8C128.5 41.3 128.8 40.9 129.1 40.4C129.4 40 129.6 39.5 129.9 39C130.2 38.6 130.4 38.1 130.7 37.7C131 37.2 131.3 36.6 131.5 36.3C131.7 36 131.7 35.9 131.8 35.8"/><path pathLength="1" style="--i:25" d="M156 38.2C156.3 38.4 156.9 38.9 157.4 39.2C157.8 39.5 158.3 39.7 158.7 40C159.2 40.3 159.7 40.5 160.2 40.8C160.6 41 161.1 41.2 161.6 41.5C162.1 41.7 162.6 41.9 163.1 42C163.6 42.2 164.1 42.4 164.6 42.6C165.1 42.7 165.7 42.9 166.2 43C166.7 43.1 167.2 43.3 167.7 43.4C168.3 43.5 168.8 43.6 169.3 43.6C169.8 43.7 170.4 43.8 170.9 43.9C171.4 43.9 172 44 172.5 44C173 44.1 173.5 44.1 174.1 44.1C174.6 44.1 175.2 44.1 175.7 44.1C176.2 44.1 177 44.2 177.3 44.1C177.5 44.1 177.4 43.9 177.2 43.7C176.9 43.5 176.3 43.2 175.8 42.9C175.4 42.6 174.9 42.4 174.4 42.1C174 41.8 173.5 41.6 173 41.4C172.5 41.1 172.1 40.9 171.6 40.7C171.1 40.5 170.6 40.2 170.1 40C169.6 39.9 169.1 39.7 168.6 39.5C168.1 39.3 167.6 39.2 167.1 39C166.6 38.9 166.1 38.7 165.5 38.6C165 38.5 164.5 38.4 164 38.3C163.4 38.2 162.9 38.2 162.4 38.1C161.9 38 161.3 38 160.8 38C160.3 38 159.7 37.9 159.2 38C158.7 38 158.1 38 157.6 38C157.1 38 156.4 37.9 156.4 38C156.4 38.1 157.2 38.5 157.6 38.8C158.1 39.1 158.8 39.5 159 39.6"/><path pathLength="1" style="--i:26" d="M155.8 37.7C155.9 37.7 155.9 37.7 156.3 37.8C156.6 37.9 157.3 38.1 157.8 38.3C158.3 38.4 158.8 38.6 159.3 38.7C159.8 38.9 160.4 39.1 160.9 39.2C161.4 39.4 161.9 39.5 162.4 39.7C162.9 39.8 163.4 40 163.9 40.1C164.4 40.3 165 40.4 165.5 40.6C166 40.7 166.5 40.9 167 41C167.5 41.2 168 41.3 168.5 41.5C169.1 41.6 169.6 41.8 170.1 41.9C170.6 42.1 171.3 42.3 171.6 42.4C172 42.5 172.1 42.5 172.2 42.5"/><path pathLength="1" style="--i:27" d="M156.3 38.2C156.6 38 157.2 37.6 157.7 37.3C158.1 37 158.6 36.7 159 36.3C159.4 36 159.8 35.7 160.2 35.3C160.6 35 161 34.6 161.4 34.2C161.8 33.9 162.1 33.5 162.5 33.1C162.9 32.7 163.2 32.3 163.6 31.9C163.9 31.5 164.2 31 164.5 30.6C164.9 30.2 165.2 29.7 165.5 29.3C165.8 28.9 166.1 28.4 166.3 28C166.6 27.5 166.9 27 167.1 26.6C167.4 26.1 167.6 25.6 167.9 25.2C168.1 24.7 168.3 24.2 168.6 23.7C168.8 23.2 169 22.7 169.2 22.3C169.4 21.8 169.8 21 169.8 20.8C169.8 20.5 169.7 20.6 169.4 20.7C169.1 20.9 168.5 21.3 168.1 21.7C167.7 22 167.3 22.3 166.8 22.6C166.4 23 166 23.3 165.6 23.7C165.2 24 164.8 24.4 164.4 24.7C164.1 25.1 163.7 25.5 163.3 25.9C162.9 26.3 162.6 26.7 162.2 27.1C161.9 27.5 161.6 27.9 161.2 28.3C160.9 28.7 160.6 29.1 160.3 29.6C160 30 159.7 30.5 159.4 30.9C159.1 31.4 158.9 31.8 158.6 32.3C158.4 32.8 158.1 33.3 157.9 33.7C157.7 34.2 157.5 34.7 157.3 35.2C157.1 35.7 156.9 36.3 156.7 36.7C156.6 37.2 156.2 37.8 156.3 37.9C156.4 37.9 157.1 37.3 157.5 37C157.9 36.7 158.6 36.2 158.8 36.1"/><path pathLength="1" style="--i:28" d="M155.7 38.8C155.8 38.7 156 38.4 156.3 38.1C156.6 37.7 156.9 37.2 157.3 36.8C157.6 36.4 157.9 35.9 158.2 35.5C158.6 35.1 158.9 34.7 159.2 34.2C159.6 33.8 159.9 33.4 160.2 33C160.5 32.6 160.9 32.1 161.2 31.7C161.5 31.3 161.9 30.9 162.2 30.5C162.5 30 162.8 29.6 163.2 29.2C163.5 28.8 163.8 28.4 164.2 28C164.5 27.5 164.8 27.1 165.2 26.7C165.5 26.3 165.9 25.7 166.1 25.4C166.4 25.2 166.4 25.1 166.5 25"/><path pathLength="1" style="--i:29" d="M32 126.2C32.1 126.2 32.5 126.3 32.9 126.4C33.3 126.5 33.9 126.6 34.5 126.7C35 126.8 35.5 126.9 36 127.1C36.6 127.2 37.1 127.3 37.6 127.4C38.1 127.5 38.6 127.6 39.2 127.7C39.7 127.8 40.2 127.9 40.7 128C41.3 128.1 41.8 128.3 42.3 128.4C42.8 128.5 43.4 128.6 43.7 128.7C44 128.7 44.1 128.8 44.2 128.8"/><path pathLength="1" style="--i:30" d="M50.4 122.9C50.7 123 51.5 123.1 52 123.3C52.4 123.4 52.8 123.7 53.2 124.1C53.6 124.4 53.9 124.8 54.2 125.2C54.5 125.6 54.7 126.1 54.9 126.6C55.1 127 55.3 127.5 55.4 128C55.5 128.5 55.6 129 55.7 129.5C55.7 130 55.7 130.6 55.6 131.1C55.6 131.6 55.5 132.1 55.4 132.6C55.2 133.1 55.1 133.6 54.9 134.1C54.7 134.5 54.4 135 54.1 135.4C53.8 135.8 53.4 136.2 53 136.5C52.6 136.8 52.2 137.1 51.7 137.2C51.2 137.4 50.7 137.5 50.2 137.4C49.7 137.4 49.2 137.2 48.7 137C48.2 136.8 47.8 136.5 47.4 136.1C47.1 135.8 46.7 135.4 46.4 134.9C46.1 134.5 45.9 134 45.7 133.5C45.5 133.1 45.3 132.5 45.2 132C45.1 131.5 45.1 131 45.1 130.4C45.1 129.9 45.1 129.4 45.1 128.8C45.2 128.3 45.3 127.8 45.4 127.3C45.6 126.8 45.8 126.3 46 125.8C46.3 125.3 46.6 124.9 46.9 124.5C47.3 124.1 47.7 123.7 48.1 123.4C48.6 123.2 49.2 122.9 49.6 122.8C50 122.7 50.1 122.6 50.5 122.6C50.9 122.6 51.6 122.7 52.1 122.9C52.6 123.1 53.2 123.7 53.4 123.8"/><path pathLength="1" style="--i:31" d="M71 85C71 84.8 70.8 84.4 70.7 84C70.5 83.6 70.3 83 70.1 82.5C69.9 82 69.8 81.5 69.6 81C69.4 80.5 69.2 80 69 79.5C68.9 79 68.7 78.5 68.5 78C68.3 77.5 68.1 77 68 76.5C67.8 76 67.6 75.5 67.4 75C67.3 74.5 67.1 74 67 73.7C66.9 73.4 66.8 73.2 66.8 73.1"/><path pathLength="1" style="--i:32" d="M64.7 59.5C65 59.6 65.8 59.6 66.3 59.8C66.8 60 67.3 60.4 67.7 60.7C68.1 61.1 68.4 61.5 68.7 61.9C69 62.3 69.2 62.8 69.5 63.3C69.7 63.8 69.8 64.3 70 64.8C70.1 65.3 70.2 65.9 70.2 66.4C70.3 66.9 70.2 67.5 70.2 68C70.1 68.5 70 69.1 69.9 69.6C69.8 70.1 69.6 70.6 69.4 71.1C69.2 71.6 68.9 72.1 68.6 72.5C68.3 72.9 67.9 73.3 67.5 73.7C67 74 66.5 74.3 66 74.4C65.5 74.6 64.9 74.7 64.4 74.6C63.9 74.6 63.3 74.4 62.8 74.2C62.3 74 61.9 73.6 61.5 73.3C61 72.9 60.7 72.5 60.4 72C60.1 71.6 59.8 71.1 59.6 70.6C59.4 70.1 59.3 69.5 59.1 69C59 68.4 59 67.9 59 67.3C59 66.8 59 66.2 59 65.7C59.1 65.2 59.2 64.6 59.3 64.1C59.5 63.5 59.7 63 60 62.5C60.3 62 60.6 61.6 60.9 61.2C61.3 60.8 61.7 60.4 62.2 60.1C62.7 59.8 63.3 59.5 63.7 59.4C64.1 59.3 64.3 59.2 64.8 59.2C65.2 59.2 65.9 59.4 66.4 59.6C66.9 59.8 67.6 60.3 67.8 60.5"/><path pathLength="1" style="--i:33" d="M113.1 55.6C113.1 55.6 113.2 55.6 113.4 55.9C113.7 56.1 114.2 56.6 114.6 57C115 57.3 115.4 57.7 115.8 58C116.2 58.4 116.6 58.7 116.9 59.1C117.3 59.5 117.7 59.8 118.1 60.2C118.5 60.5 118.9 60.9 119.3 61.3C119.7 61.6 120.1 62 120.5 62.3C120.9 62.7 121.3 63 121.6 63.3C121.8 63.5 122.2 63.8 122.3 63.9"/><path pathLength="1" style="--i:34" d="M126.8 60.3C127.1 60.3 127.9 60.4 128.4 60.6C128.9 60.8 129.4 61.1 129.8 61.5C130.2 61.9 130.5 62.3 130.8 62.7C131.1 63.2 131.4 63.7 131.6 64.2C131.8 64.7 132 65.2 132.1 65.7C132.2 66.2 132.3 66.8 132.3 67.3C132.3 67.8 132.3 68.4 132.2 68.9C132.2 69.4 132 70 131.9 70.5C131.8 71 131.6 71.5 131.4 72C131.1 72.5 130.9 72.9 130.5 73.3C130.2 73.8 129.8 74.1 129.4 74.4C128.9 74.7 128.4 75 128 75.1C127.5 75.2 126.9 75.3 126.4 75.2C125.9 75.2 125.4 75 125 74.8C124.5 74.5 124.1 74.2 123.8 73.9C123.4 73.5 123.1 73.1 122.8 72.7C122.5 72.2 122.3 71.8 122.1 71.3C122 70.8 121.8 70.3 121.7 69.8C121.6 69.3 121.6 68.8 121.6 68.2C121.6 67.7 121.6 67.2 121.7 66.7C121.8 66.2 121.8 65.7 122 65.2C122.1 64.7 122.3 64.2 122.6 63.8C122.8 63.3 123.1 62.9 123.5 62.5C123.8 62.1 124.2 61.8 124.6 61.5C125 61.3 125.6 61.1 125.9 60.9C126.3 60.8 126.4 60.7 126.7 60.7C127.1 60.8 127.7 60.8 128.2 61C128.7 61.2 129.3 61.7 129.5 61.9"/></g></svg>
