<svg xmlns="http://www.w3.org/2000/svg" viewBox="0 0 200 200" data-doodle="pendant"><g class="dd-wash" fill-opacity="0.55"><path fill="#f3dcae" d="M63.9 130.8C65.6 130.6 70.3 129.8 73.9 129.5C77.5 129.3 81.2 129.1 85.4 129.2C89.5 129.3 94.2 129.7 98.8 130.1C103.4 130.4 108.4 131 112.9 131.3C117.3 131.6 121.7 131.8 125.7 131.8C129.6 131.8 133.4 130.9 136.5 131.1C139.6 131.4 142.3 131.4 144.4 133.4C146.5 135.4 147.2 139.7 149.1 143.2C151 146.6 153.4 150.4 155.8 154.1C158.3 157.9 161.2 162 163.8 165.9C166.3 169.7 168.9 173.6 171 177.2C173.1 180.8 174.8 184.1 176.3 187.3C177.8 190.5 181.3 194.9 180.1 196.6C179 198.2 173.2 197.2 169.4 197.3C165.7 197.5 161.2 197.2 157.5 197.4C153.8 197.5 150.7 198.1 147.3 198.4C143.9 198.8 140.8 199.4 137.2 199.6C133.5 199.8 129.7 199.9 125.4 199.7C121.2 199.6 116.4 199.1 111.8 198.8C107.2 198.4 102.2 197.8 97.8 197.5C93.4 197.3 89.1 197.1 85.3 197.2C81.4 197.3 78.1 197.7 74.7 198.1C71.2 198.4 68.3 199 64.7 199.3C61.2 199.6 57.6 199.8 53.6 199.8C49.5 199.8 45 199.4 40.4 199.1C35.9 198.8 28.3 199.6 26.3 197.8C24.3 196.1 26.8 191.6 28.3 188.4C29.7 185.1 32.4 181.5 34.8 178.3C37.2 175.1 40.2 172.2 42.7 169.1C45.3 165.9 47.9 162.9 50.1 159.5C52.2 156.1 54 152.5 55.5 148.8C57.1 145.1 58.4 140.3 59.4 137.1C60.5 133.9 61.5 130.8 62 129.6Z"/><path fill="#cdb09a" d="M56.1 123.6C56.1 121.6 55.6 115.1 56.4 111.3C57.3 107.5 59.3 104.1 61.3 100.8C63.4 97.4 66.3 94.5 68.9 91.4C71.4 88.2 74 85.1 76.5 82.1C79 79.2 81.2 76 84 73.6C86.8 71.3 89.6 69.2 93.2 68.2C96.8 67.2 101.2 67.1 105.6 67.7C109.9 68.4 115.2 70.2 119.4 72.1C123.7 74 128 76.7 131.2 79.2C134.3 81.7 136.6 84.4 138.5 87.2C140.4 90.1 141.2 92.8 142.3 96.1C143.5 99.4 144.2 102.9 145.3 106.8C146.3 110.7 148.9 116.4 148.6 119.5C148.3 122.6 146.2 124.3 143.5 125.4C140.8 126.4 136.4 125.9 132.2 125.8C128.1 125.7 123.2 125.1 118.5 124.7C113.8 124.4 108.7 123.7 104.3 123.4C99.9 123.2 95.8 123.2 92.2 123.3C88.5 123.5 85.6 124.2 82.2 124.6C78.9 125 75.9 125.6 72.1 125.7C68.4 125.9 61.9 125.5 59.7 125.5C57.5 125.4 59.1 125.4 59 125.4Z"/></g><g class="dd-ink" fill="none" stroke="currentColor" stroke-width="2.2" stroke-linecap="round" stroke-linejoin="round"><path pathLength="1" style="--i:0" d="M90 3C91.1 3.1 94.3 3.3 96.4 3.4C98.5 3.5 100.7 3.7 102.8 3.7C104.9 3.8 108.5 2.9 109.3 3.8C110 4.6 108.5 7.8 107.2 8.9C105.8 10 103.3 10.2 101.2 10.3C99.1 10.5 96.5 10.9 94.8 10C93.2 9.1 91.4 5.9 91.4 5C91.4 4.2 93.7 4.9 94.8 4.9C95.9 4.9 97.5 5 98 5"/><path pathLength="1" style="--i:1" d="M100.8 7.9C100.9 9 101 12.6 101 14.8C101 17 100.9 19.1 100.9 21.2C100.8 23.3 100.7 25.5 100.6 27.6C100.5 29.7 100.4 31.9 100.4 34C100.4 36.1 100.4 38.3 100.4 40.4C100.4 42.5 100.5 44.7 100.6 46.8C100.6 48.9 100.7 51.1 100.7 53.2C100.7 55.3 100.6 57.5 100.5 59.6C100.4 61.7 100.2 64.4 100.1 66C100 67.6 99.9 68.5 99.9 69"/><path pathLength="1" style="--i:2" d="M55 122C55.1 121 55.1 117.8 55.3 115.7C55.4 113.6 55.6 111.5 55.9 109.4C56.2 107.3 56.5 105.2 56.9 103.1C57.4 101.1 58 99 58.7 97C59.4 95 60.3 93 61.3 91.1C62.3 89.2 63.5 87.4 64.7 85.6C65.9 83.9 67.3 82.2 68.7 80.7C70.2 79.1 71.7 77.5 73.3 76.1C74.9 74.7 76.5 73.3 78.3 72C80.1 70.8 81.9 69.6 83.9 68.7C85.8 67.7 87.8 66.9 89.9 66.3C92 65.7 94.2 65.3 96.4 65.1C98.6 65 100.8 65.1 103 65.4C105.1 65.7 107.2 66.2 109.3 66.8C111.3 67.5 113.3 68.3 115.3 69.2C117.2 70.1 119.1 71.1 120.9 72.3C122.7 73.4 124.4 74.6 126 76C127.7 77.3 129.3 78.8 130.7 80.4C132.1 81.9 133.4 83.6 134.6 85.4C135.8 87.1 136.8 89 137.8 90.9C138.7 92.8 139.5 94.8 140.2 96.8C140.9 98.8 141.5 100.8 142.1 102.8C142.7 104.8 143.2 106.8 143.6 108.9C144.1 110.9 144.5 113 144.8 115.1C145.2 117.2 146.4 120.1 145.6 121.2C144.8 122.4 142.2 121.8 140.2 121.9C138.2 122 135.9 122 133.8 122C131.7 122 129.5 122 127.4 121.9C125.3 121.9 123.1 121.9 121 121.9C118.9 121.9 116.7 121.9 114.6 122C112.5 122.1 110.3 122.2 108.2 122.3C106.1 122.5 103.9 122.6 101.8 122.7C99.7 122.9 97.5 123 95.4 123C93.3 123.1 91.1 123.1 89 123.1C86.9 123 84.7 122.9 82.6 122.8C80.5 122.7 78.3 122.6 76.2 122.5C74.1 122.4 71.9 122.3 69.8 122.2C67.7 122.2 65.5 122.2 63.4 122.2C61.3 122.2 58.6 122.8 57 122.2C55.4 121.7 54.3 120.2 53.8 118.8C53.4 117.4 54.2 114.8 54.3 114"/><path pathLength="1" style="--i:3" d="M50 122.2C51.2 122.5 54.5 123.6 56.7 124.1C58.8 124.6 60.8 124.8 62.9 125.2C65 125.5 67.1 125.7 69.2 126C71.3 126.3 73.4 126.6 75.5 127C77.6 127.3 79.7 127.6 81.8 127.9C83.9 128.2 86.1 128.5 88.2 128.7C90.3 128.9 92.4 129.1 94.6 129.2C96.7 129.3 98.8 129.3 101 129.3C103.1 129.3 105.3 129.3 107.4 129.2C109.5 129.1 111.7 129.1 113.8 129C115.9 128.9 118.1 128.9 120.2 128.8C122.3 128.7 124.5 128.6 126.6 128.5C128.8 128.3 130.9 128.1 133 127.7C135.1 127.4 137.3 127 139.3 126.4C141.4 125.8 143.7 125 145.4 124.2C147.2 123.5 149 122.4 149.7 122.1"/><path pathLength="1" style="--i:4" d="M108.8 124.6C108.4 125.7 108 130 106.6 131.7C105.2 133.4 102.7 134.5 100.6 134.6C98.5 134.8 95.6 134 94 132.8C92.5 131.5 91.7 128.3 91.2 127.1C90.7 125.9 91 125.8 91 125.5"/></g></svg>
